Coordinates
version=1
nRows=19
nColumns=38
inDegrees=no

Units are S.I. units (second, meters, Newtons, ...)
If the header above contains a line with 'inDegrees', this indicates whether rotational values are in degrees (yes) or radians (no).

endheader
time	pelvis_tilt	pelvis_list	pelvis_rotation	pelvis_tx	pelvis_ty	pelvis_tz	hip_flexion_r	hip_adduction_r	hip_rotation_r	knee_angle_r	ankle_angle_r	subtalar_angle_r	mtp_angle_r	hip_flexion_l	hip_adduction_l	hip_rotation_l	knee_angle_l	ankle_angle_l	subtalar_angle_l	mtp_angle_l	lumbar_extension	lumbar_bending	lumbar_rotation	arm_flex_r	arm_add_r	arm_rot_r	elbow_flex_r	pro_sup_r	wrist_flex_r	wrist_dev_r	arm_flex_l	arm_add_l	arm_rot_l	elbow_flex_l	pro_sup_l	wrist_flex_l	wrist_dev_l
0	2.91423	1.19058	-1.52505	0.751161	-0.50246	0.963405	-0.519888	0.000508963	-0.0959658	0.0110908	-0.0449725	0	0	-0.523599	-0.0135879	-0.55995	0.0201089	-0.0197916	0	0	-0.455457	-0.0285493	0.193145	0.0594314	-0.244016	0.823053	0.517816	0.672658	0	0	-0.0108005	-0.275117	0.536558	0.636255	1.14934	0	0
0.01	2.88852	1.1969	-1.50041	0.750559	-0.501135	0.963658	-0.517732	0.00935773	-0.0909481	0.00256927	-0.0472704	0	0	-0.523599	-0.0225364	-0.557699	0.011697	-0.0156069	0	0	-0.446155	-0.0123668	0.196151	0.0614712	-0.227561	0.807902	0.472977	0.70342	0	0	-0.000848964	-0.202211	0.364963	0.525032	1.33677	0	0
0.02	2.86258	1.19595	-1.49325	0.751412	-0.504187	0.964139	-0.50861	0.0103627	-0.0665693	0.00885837	-0.0494197	0	0	-0.523599	-0.0306888	-0.578763	0.020786	-0.010194	0	0	-0.452493	-0.00896751	0.214954	0.0700397	-0.233363	0.810238	0.475992	0.705551	0	0	0.00944034	-0.195353	0.363398	0.520139	1.35076	0	0
0.03	2.9056	1.1912	-1.52814	0.752829	-0.50157	0.964454	-0.519522	-0.000329778	-0.0852172	0.00988249	-0.0489919	0	0	-0.523599	-0.021304	-0.578115	0.0314983	-0.011292	0	0	-0.45156	-0.0309497	0.203203	0.0667992	-0.222404	0.809528	0.474368	0.706975	0	0	-0.0100322	-0.252005	0.456007	0.600644	1.33792	0	0
0.04	2.9012	1.19671	-1.52431	0.752405	-0.500768	0.964455	-0.515694	6.91007e-05	-0.0828084	0.00652723	-0.050256	0	0	-0.523599	-0.0245242	-0.57255	0.030057	-0.0101453	0	0	-0.443397	-0.0235744	0.20614	0.0631342	-0.223822	0.807513	0.472388	0.707902	0	0	0.00365692	-0.212104	0.406906	0.534873	1.33072	0	0
0.05	2.89571	1.19786	-1.50563	0.749319	-0.500843	0.963579	-0.517033	0.006293	-0.0938798	0.00263395	-0.0469573	0	0	-0.523599	-0.0242836	-0.562188	0.0161286	-0.00840956	0	0	-0.445191	-0.0132436	0.194596	0.0624374	-0.227761	0.808068	0.474797	0.709214	0	0	0.00514402	-0.203301	0.390106	0.526353	1.34478	0	0
0.06	2.89586	1.19791	-1.50469	0.749471	-0.500631	0.963491	-0.517109	0.00653342	-0.0947238	0.00260799	-0.0468933	0	0	-0.523599	-0.0241739	-0.56136	0.0155903	-0.00878607	0	0	-0.445017	-0.0127623	0.193441	0.0627022	-0.227539	0.809089	0.474867	0.709227	0	0	0.00636734	-0.202504	0.389345	0.525076	1.35765	0	0
0.07	2.88335	1.19112	-1.52229	0.753695	-0.504746	0.964738	-0.510869	0.000858241	-0.062403	0.0147397	-0.0497094	0	0	-0.523599	-0.0278455	-0.587678	0.0387869	-0.0099398	0	0	-0.457566	-0.0286008	0.220155	0.0738524	-0.225788	0.810115	0.478162	0.709095	0	0	0.00356503	-0.248611	0.477042	0.598133	1.34412	0	0
0.08	2.89978	1.18977	-1.52726	0.754877	-0.502048	0.964822	-0.519086	0.00274528	-0.0798763	0.011072	-0.0509222	0	0	-0.523599	-0.022338	-0.592203	0.0319983	-0.0165595	0	0	-0.454408	-0.0344384	0.210829	0.0685772	-0.216352	0.807042	0.47395	0.7091	0	0	0.00104345	-0.266053	0.513073	0.614537	1.3155	0	0
0.09	2.89909	1.19415	-1.51175	0.751927	-0.501632	0.963679	-0.518229	0.00757832	-0.0905376	0.00806834	-0.0485288	0	0	-0.523599	-0.0207186	-0.567397	0.0176641	-0.0201036	0	0	-0.448126	-0.025769	0.197846	0.0658309	-0.218487	0.805252	0.47563	0.7101	0	0	0.00138926	-0.266736	0.53193	0.615246	1.28787	0	0
0.1	2.90142	1.19284	-1.52572	0.754235	-0.502266	0.964613	-0.516661	0.00337517	-0.082383	0.00947344	-0.0509189	0	0	-0.523599	-0.0263283	-0.582883	0.0326955	-0.0158357	0	0	-0.45188	-0.0336778	0.20847	0.0688946	-0.215408	0.805147	0.473721	0.710259	0	0	0.00502594	-0.271845	0.545247	0.620945	1.26514	0	0
0.11	2.90306	1.19291	-1.52692	0.753921	-0.502403	0.964635	-0.516374	0.00265043	-0.0822773	0.00955786	-0.0508822	0	0	-0.523599	-0.025042	-0.581175	0.0317401	-0.0168097	0	0	-0.452493	-0.0337954	0.208474	0.069371	-0.215681	0.805197	0.474008	0.710382	0	0	0.00743151	-0.272529	0.554569	0.622223	1.24827	0	0
0.12	2.89531	1.19964	-1.50687	0.750916	-0.501217	0.963633	-0.513102	0.00796085	-0.0879525	0.00515381	-0.0504725	0	0	-0.523599	-0.0228762	-0.555703	0.0130325	-0.0230249	0	0	-0.442709	-0.0185867	0.198704	0.0656579	-0.220652	0.807685	0.474254	0.710604	0	0	0.0132859	-0.241812	0.518874	0.573879	1.25039	0	0
0.13	2.86781	1.1926	-1.51139	0.755771	-0.505875	0.965091	-0.505549	0.00861929	-0.0538208	0.0161297	-0.0545321	0	0	-0.523599	-0.0302096	-0.588973	0.0305023	-0.024205	0	0	-0.459343	-0.0284779	0.229412	0.0777269	-0.219461	0.810906	0.476257	0.710887	0	0	0.0182532	-0.263833	0.54643	0.612122	1.24962	0	0
0.14	2.89806	1.19867	-1.5068	0.750895	-0.502132	0.963373	-0.512881	0.00895406	-0.0890678	0.00597198	-0.0499378	0	0	-0.523599	-0.023175	-0.548903	0.0119661	-0.0271708	0	0	-0.446691	-0.0231912	0.196589	0.0683767	-0.219576	0.809762	0.477212	0.712477	0	0	0.011211	-0.268697	0.561917	0.619138	1.24048	0	0
0.15	2.89441	1.20182	-1.50233	0.750363	-0.501485	0.963532	-0.510871	0.00962203	-0.0891319	0.00474068	-0.05122	0	0	-0.523599	-0.022268	-0.54383	0.0067986	-0.0296474	0	0	-0.441046	-0.0170136	0.196347	0.066159	-0.220576	0.811287	0.474809	0.712942	0	0	0.0165898	-0.245361	0.532814	0.578535	1.24611	0	0
0.16	2.90296	1.19586	-1.51979	0.752394	-0.502081	0.964489	-0.514294	0.00503443	-0.0870376	0.00855867	-0.0522499	0	0	-0.523599	-0.023968	-0.562997	0.0235528	-0.0255377	0	0	-0.44937	-0.0296352	0.203087	0.0693323	-0.215979	0.810737	0.474408	0.712455	0	0	0.0118083	-0.270108	0.558086	0.618856	1.24633	0	0
0.17	2.90824	1.19594	-1.51081	0.749171	-0.501164	0.963679	-0.517276	0.00618188	-0.100755	0.00786582	-0.0488166	0	0	-0.523599	-0.0154371	-0.550174	0.00984531	-0.0273526	0	0	-0.447289	-0.0219383	0.189681	0.0663795	-0.220112	0.809184	0.476729	0.712455	0	0	0.010348	-0.268048	0.566881	0.618087	1.23962	0	0
0.18	2.91342	1.19171	-1.52962	0.751695	-0.501703	0.964909	-0.518316	-9.45096e-05	-0.0927244	0.0109542	-0.0510693	0	0	-0.523599	-0.0150073	-0.571651	0.0235363	-0.0250082	0	0	-0.453448	-0.0314345	0.201656	0.0689112	-0.217295	0.809271	0.474986	0.712004	0	0	0.0120103	-0.271944	0.569988	0.622594	1.23339	0	0
